<?xml version="1.0" encoding="UTF-8" standalone="no"?>
<!DOCTYPE svg PUBLIC "-//W3C//DTD SVG 1.1//EN"
 "http://www.w3.org/Graphics/SVG/1.1/DTD/svg11.dtd">
<!-- Generated by graphviz version 2.43.0 (0)
 -->
<!-- Title: G Pages: 1 -->
<svg width="920pt" height="447pt"
 viewBox="0.00 0.00 919.50 447.48" xmlns="http://www.w3.org/2000/svg" xmlns:xlink="http://www.w3.org/1999/xlink">
<g id="graph0" class="graph" transform="scale(1 1) rotate(0) translate(4 443.48)">
<title>G</title>
<polygon fill="white" stroke="transparent" points="-4,4 -4,-443.48 915.5,-443.48 915.5,4 -4,4"/>
<!-- /workspaces/df&#45;data&#45;lineage/data/in/assets_20241226.csv -->
<g id="node1" class="node">
<title>/workspaces/df&#45;data&#45;lineage/data/in/assets_20241226.csv</title>
<polygon fill="snow" stroke="black" points="414,-439.48 0,-439.48 0,-401.48 420,-401.48 420,-433.48 414,-439.48"/>
<polyline fill="none" stroke="black" points="414,-439.48 414,-433.48 "/>
<polyline fill="none" stroke="black" points="420,-433.48 414,-433.48 "/>
<text text-anchor="middle" x="210" y="-424.28" font-family="Microsoft JhengHei" font-size="14.00">/workspaces/df&#45;data&#45;lineage/data/in/assets_20241226.csv</text>
<text text-anchor="middle" x="210" y="-409.28" font-family="Microsoft JhengHei" font-size="14.00">feed</text>
</g>
<!-- workflow_1 -->
<g id="node2" class="node">
<title>workflow_1</title>
<ellipse fill="none" stroke="black" stroke-width="2" cx="277" cy="-338.61" rx="67.35" ry="26.74"/>
<text text-anchor="middle" x="277" y="-342.41" font-family="Microsoft JhengHei" font-size="14.00">workflow_1</text>
<text text-anchor="middle" x="277" y="-327.41" font-family="Microsoft JhengHei" font-size="14.00">process</text>
</g>
<!-- /workspaces/df&#45;data&#45;lineage/data/in/assets_20241226.csv&#45;&gt;workflow_1 -->
<g id="edge1" class="edge">
<title>/workspaces/df&#45;data&#45;lineage/data/in/assets_20241226.csv&#45;&gt;workflow_1</title>
<path fill="none" stroke="black" d="M225.2,-401.36C232.45,-392.71 241.35,-382.1 249.72,-372.13"/>
<polygon fill="black" stroke="black" points="252.52,-374.23 256.27,-364.32 247.16,-369.73 252.52,-374.23"/>
</g>
<!-- dl_asset_mgmt.tasset -->
<g id="node3" class="node">
<title>dl_asset_mgmt.tasset</title>
<polygon fill="lightseagreen" stroke="black" points="494.5,-275.74 327.5,-275.74 327.5,-237.74 494.5,-237.74 494.5,-275.74"/>
<text text-anchor="middle" x="411" y="-260.54" font-family="Microsoft JhengHei" font-size="14.00">dl_asset_mgmt.tasset</text>
<text text-anchor="middle" x="411" y="-245.54" font-family="Microsoft JhengHei" font-size="14.00">dataset</text>
</g>
<!-- workflow_1&#45;&gt;dl_asset_mgmt.tasset -->
<g id="edge2" class="edge">
<title>workflow_1&#45;&gt;dl_asset_mgmt.tasset</title>
<path fill="none" stroke="black" d="M313.62,-315.79C331.73,-304.99 353.6,-291.95 372.03,-280.97"/>
<polygon fill="black" stroke="black" points="373.96,-283.89 380.76,-275.76 370.38,-277.88 373.96,-283.89"/>
</g>
<!-- /workspaces/df&#45;data&#45;lineage/sql/ext_asset_value_agg.sql -->
<g id="node7" class="node">
<title>/workspaces/df&#45;data&#45;lineage/sql/ext_asset_value_agg.sql</title>
<polygon fill="lightseagreen" stroke="black" points="713.5,-201.74 304.5,-201.74 304.5,-163.74 713.5,-163.74 713.5,-201.74"/>
<text text-anchor="middle" x="509" y="-186.54" font-family="Microsoft JhengHei" font-size="14.00">/workspaces/df&#45;data&#45;lineage/sql/ext_asset_value_agg.sql</text>
<text text-anchor="middle" x="509" y="-171.54" font-family="Microsoft JhengHei" font-size="14.00">dataset</text>
</g>
<!-- dl_asset_mgmt.tasset&#45;&gt;/workspaces/df&#45;data&#45;lineage/sql/ext_asset_value_agg.sql -->
<g id="edge3" class="edge">
<title>dl_asset_mgmt.tasset&#45;&gt;/workspaces/df&#45;data&#45;lineage/sql/ext_asset_value_agg.sql</title>
<path fill="none" stroke="black" d="M435.73,-237.57C447.92,-228.62 462.78,-217.7 475.93,-208.04"/>
<polygon fill="black" stroke="black" points="478.29,-210.64 484.28,-201.9 474.15,-205 478.29,-210.64"/>
</g>
<!-- /workspaces/df&#45;data&#45;lineage/data/in/acct_positions_20241226.csv -->
<g id="node4" class="node">
<title>/workspaces/df&#45;data&#45;lineage/data/in/acct_positions_20241226.csv</title>
<polygon fill="snow" stroke="black" points="905.5,-439.48 438.5,-439.48 438.5,-401.48 911.5,-401.48 911.5,-433.48 905.5,-439.48"/>
<polyline fill="none" stroke="black" points="905.5,-439.48 905.5,-433.48 "/>
<polyline fill="none" stroke="black" points="911.5,-433.48 905.5,-433.48 "/>
<text text-anchor="middle" x="675" y="-424.28" font-family="Microsoft JhengHei" font-size="14.00">/workspaces/df&#45;data&#45;lineage/data/in/acct_positions_20241226.csv</text>
<text text-anchor="middle" x="675" y="-409.28" font-family="Microsoft JhengHei" font-size="14.00">feed</text>
</g>
<!-- workflow_2 -->
<g id="node5" class="node">
<title>workflow_2</title>
<ellipse fill="#cccccc" stroke="black" cx="658" cy="-338.61" rx="67.35" ry="26.74"/>
<text text-anchor="middle" x="658" y="-342.41" font-family="Microsoft JhengHei" font-size="14.00">workflow_2</text>
<text text-anchor="middle" x="658" y="-327.41" font-family="Microsoft JhengHei" font-size="14.00">process</text>
</g>
<!-- /workspaces/df&#45;data&#45;lineage/data/in/acct_positions_20241226.csv&#45;&gt;workflow_2 -->
<g id="edge4" class="edge">
<title>/workspaces/df&#45;data&#45;lineage/data/in/acct_positions_20241226.csv&#45;&gt;workflow_2</title>
<path fill="none" stroke="black" d="M671.14,-401.36C669.51,-393.67 667.54,-384.42 665.63,-375.45"/>
<polygon fill="black" stroke="black" points="669.02,-374.59 663.52,-365.54 662.18,-376.05 669.02,-374.59"/>
</g>
<!-- dl_asset_mgmt.tacct_pos -->
<g id="node6" class="node">
<title>dl_asset_mgmt.tacct_pos</title>
<polygon fill="lightseagreen" stroke="black" points="736.5,-275.74 545.5,-275.74 545.5,-237.74 736.5,-237.74 736.5,-275.74"/>
<text text-anchor="middle" x="641" y="-260.54" font-family="Microsoft JhengHei" font-size="14.00">dl_asset_mgmt.tacct_pos</text>
<text text-anchor="middle" x="641" y="-245.54" font-family="Microsoft JhengHei" font-size="14.00">dataset</text>
</g>
<!-- workflow_2&#45;&gt;dl_asset_mgmt.tacct_pos -->
<g id="edge5" class="edge">
<title>workflow_2&#45;&gt;dl_asset_mgmt.tacct_pos</title>
<path fill="none" stroke="black" d="M652.43,-311.46C650.69,-303.27 648.76,-294.2 646.99,-285.88"/>
<polygon fill="black" stroke="black" points="650.36,-284.92 644.86,-275.86 643.52,-286.37 650.36,-284.92"/>
</g>
<!-- dl_asset_mgmt.tacct_pos&#45;&gt;/workspaces/df&#45;data&#45;lineage/sql/ext_asset_value_agg.sql -->
<g id="edge6" class="edge">
<title>dl_asset_mgmt.tacct_pos&#45;&gt;/workspaces/df&#45;data&#45;lineage/sql/ext_asset_value_agg.sql</title>
<path fill="none" stroke="black" d="M607.69,-237.57C590.57,-228.23 569.53,-216.76 551.28,-206.8"/>
<polygon fill="black" stroke="black" points="552.75,-203.62 542.3,-201.9 549.4,-209.76 552.75,-203.62"/>
</g>
<!-- workflow_11 -->
<g id="node8" class="node">
<title>workflow_11</title>
<ellipse fill="#cccccc" stroke="black" cx="509" cy="-100.87" rx="73.58" ry="26.74"/>
<text text-anchor="middle" x="509" y="-104.67" font-family="Microsoft JhengHei" font-size="14.00">workflow_11</text>
<text text-anchor="middle" x="509" y="-89.67" font-family="Microsoft JhengHei" font-size="14.00">process</text>
</g>
<!-- /workspaces/df&#45;data&#45;lineage/sql/ext_asset_value_agg.sql&#45;&gt;workflow_11 -->
<g id="edge7" class="edge">
<title>/workspaces/df&#45;data&#45;lineage/sql/ext_asset_value_agg.sql&#45;&gt;workflow_11</title>
<path fill="none" stroke="black" d="M509,-163.62C509,-156.01 509,-146.88 509,-138"/>
<polygon fill="black" stroke="black" points="512.5,-137.8 509,-127.8 505.5,-137.8 512.5,-137.8"/>
</g>
<!-- /workspaces/df&#45;data&#45;lineage/data/out/asset_value_agg_20241226.dat -->
<g id="node9" class="node">
<title>/workspaces/df&#45;data&#45;lineage/data/out/asset_value_agg_20241226.dat</title>
<polygon fill="snow" stroke="black" points="752.5,-38 259.5,-38 259.5,0 758.5,0 758.5,-32 752.5,-38"/>
<polyline fill="none" stroke="black" points="752.5,-38 752.5,-32 "/>
<polyline fill="none" stroke="black" points="758.5,-32 752.5,-32 "/>
<text text-anchor="middle" x="509" y="-22.8" font-family="Microsoft JhengHei" font-size="14.00">/workspaces/df&#45;data&#45;lineage/data/out/asset_value_agg_20241226.dat</text>
<text text-anchor="middle" x="509" y="-7.8" font-family="Microsoft JhengHei" font-size="14.00">feed</text>
</g>
<!-- workflow_11&#45;&gt;/workspaces/df&#45;data&#45;lineage/data/out/asset_value_agg_20241226.dat -->
<g id="edge8" class="edge">
<title>workflow_11&#45;&gt;/workspaces/df&#45;data&#45;lineage/data/out/asset_value_agg_20241226.dat</title>
<path fill="none" stroke="black" d="M509,-73.72C509,-65.53 509,-56.46 509,-48.14"/>
<polygon fill="black" stroke="black" points="512.5,-48.12 509,-38.12 505.5,-48.12 512.5,-48.12"/>
</g>
</g>
</svg>
